<svg width="365" height="364" viewBox="0 0 365 364" fill="none" xmlns="http://www.w3.org/2000/svg">
<path d="M22.0385 341.195C11.4074 330.564 11.4074 313.327 22.0385 302.696C32.6696 292.065 49.9061 292.065 60.5373 302.696C71.1684 313.327 71.1684 330.564 60.5373 341.195C49.9061 351.826 32.6696 351.826 22.0385 341.195Z" fill="black"/>
<path d="M305.485 57.7479C294.854 47.1168 294.854 29.8803 305.485 19.2492C316.116 8.61804 333.353 8.61804 343.984 19.2492C354.615 29.8803 354.615 47.1168 343.984 57.7479C333.353 68.379 316.116 68.379 305.485 57.7479Z" fill="black"/>
<path d="M306.447 337.826C295.816 327.195 295.816 309.958 306.447 299.327C317.078 288.696 334.315 288.696 344.946 299.327C355.577 309.958 355.577 327.195 344.946 337.826C334.315 348.457 317.078 348.457 306.447 337.826Z" fill="black"/>
<path d="M22.038 65.9288C11.4069 55.2977 11.4069 38.0612 22.038 27.4301C32.6692 16.7989 49.9056 16.7989 60.5368 27.4301C71.1679 38.0612 71.1679 55.2977 60.5368 65.9288C49.9056 76.5599 32.6692 76.5599 22.038 65.9288Z" fill="black"/>
<path d="M0 227.29C0 250.03 18.4345 268.465 41.1744 268.465C63.9144 268.465 93.921 294.727 93.921 317.467C93.921 340.206 112.355 358.641 135.095 358.641C157.835 358.641 176.27 340.206 176.27 317.467C176.27 294.727 201.507 269.49 224.247 269.49C246.987 269.49 265.421 251.055 265.421 228.315C265.421 205.575 246.987 187.141 224.247 187.141C201.507 187.141 183.073 205.575 183.073 228.315C183.073 251.055 157.835 276.292 135.095 276.292C112.355 276.292 82.3487 250.03 82.3487 227.29C82.3487 204.55 63.9144 186.116 41.1744 186.116C18.4345 186.116 0 204.55 0 227.29Z" fill="black"/>
<path d="M231.993 363.703C254.733 363.703 273.167 345.268 273.167 322.528C273.167 299.788 299.429 269.782 322.169 269.782C344.909 269.782 363.343 251.347 363.343 228.607C363.343 205.867 344.909 187.433 322.169 187.433C299.429 187.433 274.193 162.196 274.193 139.456C274.193 116.716 255.758 98.2812 233.018 98.2812C210.278 98.2812 191.844 116.716 191.844 139.456C191.844 162.196 210.278 180.63 233.018 180.63C255.758 180.63 280.995 205.867 280.995 228.607C280.995 251.347 254.733 281.354 231.993 281.354C209.253 281.354 190.819 299.788 190.819 322.528C190.819 345.268 209.253 363.703 231.993 363.703Z" fill="black"/>
<path d="M364.074 133.154C364.074 110.414 345.64 91.9798 322.9 91.9798C300.16 91.9798 270.153 65.7178 270.153 42.9778C270.153 20.2379 251.719 1.8038 228.979 1.8038C206.239 1.8038 187.804 20.2379 187.804 42.9778C187.804 65.7178 162.567 90.9544 139.827 90.9544C117.087 90.9544 98.6528 109.389 98.6528 132.129C98.6528 154.869 117.087 173.303 139.827 173.303C162.567 173.303 181.002 154.869 181.002 132.129C181.002 109.389 206.239 84.1522 228.979 84.1522C251.719 84.1522 281.725 110.414 281.725 133.154C281.725 155.894 300.16 174.328 322.9 174.328C345.64 174.328 364.074 155.894 364.074 133.154Z" fill="black"/>
<path d="M134.487 0.110107C111.747 0.110107 93.3133 18.5446 93.3133 41.2845C93.3133 64.0245 67.0513 94.0311 44.3113 94.0311C21.5714 94.0311 3.13729 112.466 3.13729 135.205C3.13729 157.945 21.5714 176.38 44.3113 176.38C67.0513 176.38 92.2879 201.617 92.2879 224.357C92.2879 247.097 110.722 265.532 133.462 265.532C156.202 265.532 174.636 247.097 174.636 224.357C174.636 201.617 156.202 183.183 133.462 183.183C110.722 183.183 85.4857 157.945 85.4857 135.205C85.4857 112.466 111.747 82.4588 134.487 82.4588C157.227 82.4588 175.662 64.0245 175.662 41.2845C175.662 18.5446 157.227 0.110107 134.487 0.110107Z" fill="black"/>
</svg>
