<svg width="365" height="364" viewBox="0 0 365 364" fill="none" xmlns="http://www.w3.org/2000/svg">
<path d="M22.0385 341.196C11.4074 330.565 11.4074 313.328 22.0385 302.697C32.6697 292.066 49.9061 292.066 60.5373 302.697C71.1684 313.328 71.1684 330.565 60.5373 341.196C49.9061 351.827 32.6697 351.827 22.0385 341.196Z" fill="white"/>
<path d="M305.485 57.7484C294.854 47.1173 294.854 29.8808 305.485 19.2497C316.116 8.61852 333.353 8.61852 343.984 19.2497C354.615 29.8808 354.615 47.1173 343.984 57.7484C333.353 68.3795 316.116 68.3795 305.485 57.7484Z" fill="white"/>
<path d="M306.447 337.827C295.816 327.195 295.816 309.959 306.447 299.328C317.078 288.697 334.315 288.697 344.946 299.328C355.577 309.959 355.577 327.195 344.946 337.827C334.315 348.458 317.078 348.458 306.447 337.827Z" fill="white"/>
<path d="M22.038 65.9291C11.4069 55.2979 11.4069 38.0615 22.038 27.4303C32.6692 16.7992 49.9056 16.7992 60.5368 27.4303C71.1679 38.0615 71.1679 55.2979 60.5368 65.9291C49.9056 76.5602 32.6692 76.5602 22.038 65.9291Z" fill="white"/>
<path d="M0 227.291C0 250.031 18.4345 268.466 41.1744 268.466C63.9144 268.466 93.921 294.728 93.921 317.467C93.921 340.207 112.355 358.642 135.095 358.642C157.835 358.642 176.27 340.207 176.27 317.467C176.27 294.728 201.507 269.491 224.247 269.491C246.987 269.491 265.421 251.056 265.421 228.316C265.421 205.576 246.987 187.142 224.247 187.142C201.507 187.142 183.073 205.576 183.073 228.316C183.073 251.056 157.835 276.293 135.095 276.293C112.355 276.293 82.3487 250.031 82.3487 227.291C82.3487 204.551 63.9144 186.117 41.1744 186.117C18.4345 186.117 0 204.551 0 227.291Z" fill="white"/>
<path d="M231.993 363.703C254.733 363.703 273.167 345.269 273.167 322.529C273.167 299.789 299.429 269.782 322.169 269.782C344.909 269.782 363.343 251.348 363.343 228.608C363.343 205.868 344.909 187.433 322.169 187.433C299.429 187.433 274.193 162.196 274.193 139.456C274.193 116.716 255.758 98.2817 233.018 98.2817C210.278 98.2817 191.844 116.716 191.844 139.456C191.844 162.196 210.278 180.631 233.018 180.631C255.758 180.631 280.995 205.868 280.995 228.608C280.995 251.348 254.733 281.354 231.993 281.354C209.253 281.354 190.819 299.789 190.819 322.529C190.819 345.269 209.253 363.703 231.993 363.703Z" fill="white"/>
<path d="M364.074 133.155C364.074 110.415 345.64 91.9807 322.9 91.9807C300.16 91.9807 270.153 65.7188 270.153 42.9788C270.153 20.2389 251.719 1.80478 228.979 1.80478C206.239 1.80478 187.804 20.2389 187.804 42.9788C187.804 65.7188 162.567 90.9554 139.827 90.9554C117.087 90.9554 98.6528 109.39 98.6528 132.13C98.6528 154.87 117.087 173.304 139.827 173.304C162.567 173.304 181.002 154.87 181.002 132.13C181.002 109.39 206.239 84.1532 228.979 84.1532C251.719 84.1532 281.725 110.415 281.725 133.155C281.725 155.895 300.16 174.329 322.9 174.329C345.64 174.329 364.074 155.895 364.074 133.155Z" fill="white"/>
<path d="M134.487 0.110352C111.747 0.110352 93.3133 18.5448 93.3133 41.2848C93.3133 64.0247 67.0513 94.0314 44.3113 94.0314C21.5714 94.0314 3.1373 112.466 3.1373 135.206C3.1373 157.946 21.5714 176.38 44.3113 176.38C67.0513 176.38 92.2879 201.617 92.2879 224.357C92.2879 247.097 110.722 265.532 133.462 265.532C156.202 265.532 174.636 247.097 174.636 224.357C174.636 201.617 156.202 183.183 133.462 183.183C110.722 183.183 85.4857 157.946 85.4857 135.206C85.4857 112.466 111.747 82.4591 134.487 82.4591C157.227 82.4591 175.662 64.0247 175.662 41.2848C175.662 18.5448 157.227 0.110352 134.487 0.110352Z" fill="white"/>
</svg>
